<?xml version="1.0" encoding="UTF-8" standalone="no"?>
<svg
   xmlns:dc="http://purl.org/dc/elements/1.1/"
   xmlns:cc="http://creativecommons.org/ns#"
   xmlns:rdf="http://www.w3.org/1999/02/22-rdf-syntax-ns#"
   xmlns:svg="http://www.w3.org/2000/svg"
   xmlns="http://www.w3.org/2000/svg"
   xmlns:sodipodi="http://sodipodi.sourceforge.net/DTD/sodipodi-0.dtd"
   xmlns:inkscape="http://www.inkscape.org/namespaces/inkscape"
   height="180.26944mm"
   viewBox="0 0 511.998 511"
   width="180.26944mm"
   version="1.1"
   id="svg114"
   sodipodi:docname="data_master.svg"
   inkscape:version="0.92.4 (5da689c313, 2019-01-14)"
   enable-background="new">
  <metadata
     id="metadata120">
    <rdf:RDF>
      <cc:Work
         rdf:about="">
        <dc:format>image/svg+xml</dc:format>
        <dc:type
           rdf:resource="http://purl.org/dc/dcmitype/StillImage" />
        <dc:title />
      </cc:Work>
    </rdf:RDF>
  </metadata>
  <defs
     id="defs118" />
  <sodipodi:namedview
     pagecolor="#ffffff"
     bordercolor="#666666"
     borderopacity="1"
     objecttolerance="10"
     gridtolerance="10"
     guidetolerance="10"
     inkscape:pageopacity="0"
     inkscape:pageshadow="2"
     inkscape:window-width="1920"
     inkscape:window-height="986"
     id="namedview116"
     showgrid="false"
     units="mm"
     inkscape:zoom="0.6927593"
     inkscape:cx="-44.026863"
     inkscape:cy="254.04192"
     inkscape:window-x="-11"
     inkscape:window-y="-11"
     inkscape:window-maximized="1"
     inkscape:current-layer="svg114" />
  <path
     d="M 478.45312,421.53125 H 32.980469 c -14.078125,0 -25.488281,-11.41016 -25.488281,-25.48438 V 33.480469 c 0,-14.078125 11.410156,-25.488281 25.488281,-25.488281 H 478.45312 c 14.07422,0 25.48438,11.410156 25.48438,25.488281 V 396.04687 c 0,14.07422 -11.41016,25.48438 -25.48438,25.48438 z m 0,0"
     id="path2"
     inkscape:connector-curvature="0"
     style="fill:#ffd86e" />
  <path
     d="M 503.94141,33.480469 V 396.04687 c 0,14.07422 -11.41016,25.48438 -25.48438,25.48438 h -31.13281 c 14.07812,0 25.48437,-11.41016 25.48437,-25.48438 V 33.480469 c 0,-14.074219 -11.40625,-25.484375 -25.48437,-25.484375 h 31.13281 c 14.07422,0 25.48438,11.410156 25.48438,25.484375 z m 0,0"
     id="path4"
     inkscape:connector-curvature="0"
     style="fill:#ffb509" />
  <path
     d="M 503.9375,360.12891 H 7.492188 v 35.91796 c 0,14.07422 11.410156,25.48438 25.488281,25.48438 H 478.45312 c 14.07422,0 25.48438,-11.41016 25.48438,-25.48438 z m 0,0"
     id="path6"
     inkscape:connector-curvature="0"
     style="fill:#838383" />
  <path
     d="m 503.94141,360.12891 v 35.91796 c 0,14.07422 -11.41016,25.48438 -25.48438,25.48438 h -31.13281 c 14.07812,0 25.48437,-11.41016 25.48437,-25.48438 v -35.91796 z m 0,0"
     id="path8"
     inkscape:connector-curvature="0"
     style="fill:#5a5a5a" />
  <path
     d="M 504.50781,94.933594 H 8.046875 V 33.476562 c 0,-14.074218 11.410156,-25.484374 25.484375,-25.484374 h 445.49219 c 14.07422,0 25.48437,11.410156 25.48437,25.484374 z m 0,0"
     id="path10"
     inkscape:connector-curvature="0"
     style="fill:#acacac" />
  <path
     d="M 504.51172,33.472656 V 94.9375 H 472.80859 V 33.472656 c 0,-14.066406 -11.40625,-25.476562 -25.48437,-25.476562 h 31.69922 c 14.07812,0 25.48828,11.410156 25.48828,25.476562 z m 0,0"
     id="path12"
     inkscape:connector-curvature="0"
     style="fill:#9c9c9c" />
  <path
     d="m 186.27734,421.53125 h 138.875 v 41.85937 h -138.875 z m 0,0"
     id="path14"
     inkscape:connector-curvature="0"
     style="fill:#5a5a5a" />
  <path
     d="m 370.15234,504.45312 h -228.875 c -2.75781,0 -4.99609,-2.23828 -4.99609,-4.99609 v -16.1875 c 0,-10.97656 8.90234,-19.87891 19.87891,-19.87891 h 199.11328 c 10.97656,0 19.875,8.90235 19.875,19.87891 v 16.1875 c 0,2.76172 -2.23438,4.9961 -4.9961,4.99609 z m 0,0"
     id="path16"
     inkscape:connector-curvature="0"
     style="fill:#838383" />
  <path
     d="m 375.14844,483.26562 v 16.19532 c 0,2.75781 -2.23828,4.99609 -4.9961,4.99609 h -17.63281 v -21.19141 c 0,-10.96875 -8.90234,-19.87109 -19.87109,-19.87109 h 22.6289 c 10.97266,0 19.8711,8.89844 19.8711,19.87109 z m 0,0"
     id="path18"
     inkscape:connector-curvature="0"
     style="fill:#5a5a5a" />
  <path
     d="m 295.47656,275.61328 h 162.25781 v 30.75391 H 295.47656 Z m 0,0"
     id="path20"
     inkscape:connector-curvature="0"
     style="fill:#64dcfc" />
  <path
     d="m 295.47656,357.27344 h 162.25781 v 30.75781 H 295.47656 Z m 0,0"
     id="path22"
     inkscape:connector-curvature="0"
     style="fill:#64dcfc" />
  <path
     d="m 438.55078,275.61328 h 19.18359 v 30.75391 h -19.18359 z m 0,0"
     id="path24"
     inkscape:connector-curvature="0"
     style="fill:#00d1fc" />
  <path
     d="m 438.55078,357.27344 h 19.18359 v 30.75781 h -19.18359 z m 0,0"
     id="path26"
     inkscape:connector-curvature="0"
     style="fill:#00d1fc" />
  <path
     style="fill:#0396fd"
     inkscape:connector-curvature="0"
     id="path28"
     d="m 471.17187,275.61328 h -189.1289 c -4,0 -7.2461,-3.24219 -7.2461,-7.24219 v -36.41797 c 0,-4 3.2461,-7.24609 7.2461,-7.24609 h 189.1289 c 4,0 7.2461,3.24609 7.2461,7.24609 v 36.41797 c 0,4 -3.2461,7.24219 -7.2461,7.24219 z m 0,0" />
  <path
     style="fill:#0396fd"
     inkscape:connector-curvature="0"
     id="path30"
     d="m 471.17187,357.27344 h -189.1289 c -4,0 -7.2461,-3.24219 -7.2461,-7.24219 v -36.41797 c 0,-4 3.2461,-7.24609 7.2461,-7.24609 h 189.1289 c 4,0 7.2461,3.24609 7.2461,7.24609 v 36.41797 c 0,4 -3.2461,7.24219 -7.2461,7.24219 z m 0,0" />
  <path
     style="fill:#0396fd"
     inkscape:connector-curvature="0"
     id="path32"
     d="m 471.17187,438.93359 h -189.1289 c -4,0 -7.2461,-3.24218 -7.2461,-7.24218 v -36.41797 c 0,-4.00391 3.2461,-7.2461 7.2461,-7.2461 h 189.1289 c 4,0 7.2461,3.24219 7.2461,7.2461 v 36.41797 c 0,4 -3.2461,7.24218 -7.2461,7.24218 z m 0,0" />
  <path
     d="m 478.41406,231.95312 v 36.41797 c 0,3.9961 -3.23437,7.24219 -7.24219,7.24219 h -16.80468 c 4.00781,0 7.24218,-3.24609 7.24218,-7.24219 v -36.41797 c 0,-3.99609 -3.23437,-7.24218 -7.24218,-7.24218 h 16.80468 c 4.00782,0 7.24219,3.24609 7.24219,7.24218 z m 0,0"
     id="path36"
     inkscape:connector-curvature="0"
     style="fill:#0077f0" />
  <path
     d="m 478.41406,313.60937 v 36.41797 c 0,4.00391 -3.23437,7.24219 -7.24219,7.24219 h -16.80468 c 4.00781,0 7.24218,-3.23828 7.24218,-7.24219 v -36.41797 c 0,-3.99609 -3.23437,-7.24218 -7.24218,-7.24218 h 16.80468 c 4.00782,0 7.24219,3.24609 7.24219,7.24218 z m 0,0"
     id="path38"
     inkscape:connector-curvature="0"
     style="fill:#0077f0" />
  <path
     d="m 478.41406,395.27734 v 36.41407 c 0,3.99609 -3.23437,7.24609 -7.24219,7.24609 h -16.80468 c 4.00781,0 7.24218,-3.25 7.24218,-7.24609 v -36.41407 c 0,-4.00781 -3.23437,-7.24609 -7.24218,-7.24609 h 16.80468 c 4.00782,0 7.24219,3.23828 7.24219,7.24609 z m 0,0"
     id="path40"
     inkscape:connector-curvature="0"
     style="fill:#0077f0" />
  <path
     d="m 69.757812,51.25 c 0,8.007812 -6.488281,14.5 -14.496093,14.5 -8.007813,0 -14.496094,-6.492188 -14.496094,-14.5 0,-8.003906 6.488281,-14.496094 14.496094,-14.496094 8.007812,0 14.496093,6.492188 14.496093,14.496094 z m 0,0"
     id="path42"
     inkscape:connector-curvature="0"
     style="fill:#ff6b81" />
  <path
     d="m 125.74609,51.25 c 0,8.007812 -6.49218,14.5 -14.49609,14.5 -8.00781,0 -14.5,-6.492188 -14.5,-14.5 0,-8.003906 6.49219,-14.496094 14.5,-14.496094 8.00391,0 14.49609,6.492188 14.49609,14.496094 z m 0,0"
     id="path44"
     inkscape:connector-curvature="0"
     style="fill:#ffd86e" />
  <path
     d="m 181.73047,51.25 c 0,8.007812 -6.48828,14.5 -14.4961,14.5 -8.0039,0 -14.49609,-6.492188 -14.49609,-14.5 0,-8.003906 6.49219,-14.496094 14.49609,-14.496094 8.00782,0 14.4961,6.492188 14.4961,14.496094 z m 0,0"
     id="path46"
     inkscape:connector-curvature="0"
     style="fill:#80e0dc" />
  <path
     d="m 69.753906,51.257812 c 0,8 -6.484375,14.484376 -14.488281,14.484376 -3.875,0 -7.402344,-1.519532 -10,-4.003907 7.84375,-0.171875 14.15625,-6.585937 14.15625,-14.476562 0,-4.136719 -1.726563,-7.855469 -4.496094,-10.492188 0.113281,-0.01172 0.230469,-0.01172 0.339844,-0.01172 8.003906,0 14.488281,6.484376 14.488281,14.5 z m 0,0"
     id="path48"
     inkscape:connector-curvature="0"
     style="fill:#ff435f" />
  <path
     d="m 125.74219,51.257812 c 0,8 -6.48438,14.484376 -14.4961,14.484376 -3.875,0 -7.39453,-1.519532 -10,-4.003907 7.85157,-0.171875 14.16797,-6.585937 14.16797,-14.476562 0,-4.136719 -1.73047,-7.855469 -4.49609,-10.492188 0.10937,-0.01172 0.21875,-0.01172 0.32812,-0.01172 8.01172,0 14.4961,6.484376 14.4961,14.5 z m 0,0"
     id="path50"
     inkscape:connector-curvature="0"
     style="fill:#ffb509" />
  <path
     d="m 181.73437,51.257812 c 0,8 -6.49609,14.484376 -14.5,14.484376 -3.875,0 -7.39062,-1.519532 -10,-4.003907 7.85547,-0.171875 14.15625,-6.585937 14.15625,-14.476562 0,-4.136719 -1.72656,-7.855469 -4.49609,-10.492188 0.11328,-0.01172 0.23047,-0.01172 0.33984,-0.01172 8.00391,0 14.5,6.484376 14.5,14.5 z m 0,0"
     id="path52"
     inkscape:connector-curvature="0"
     style="fill:#00a8b0" />
  <path
     d="m 58.960938,187.04687 c 1.460937,1.46094 3.378906,2.19532 5.296874,2.19532 1.917969,0 3.835938,-0.73047 5.300782,-2.19532 2.925781,-2.92578 2.925781,-7.67187 0,-10.59765 L 51.363281,158.25391 69.558594,140.0625 c 2.925781,-2.92969 2.925781,-7.67188 0,-10.59766 -2.925782,-2.92578 -7.671875,-2.92578 -10.597656,0 L 35.46875,152.95703 c -1.40625,1.40625 -2.195312,3.3125 -2.195312,5.29688 0,1.98828 0.789062,3.89453 2.195312,5.30078 z m 0,0"
     id="path54"
     inkscape:connector-curvature="0" />
  <path
     d="M 133.32031,158.25391 115.125,176.44922 c -2.92578,2.92578 -2.92578,7.67187 0.004,10.59765 1.46093,1.46094 3.3789,2.19532 5.29687,2.19532 1.91797,0 3.83594,-0.73438 5.29688,-2.19532 l 23.49609,-23.49609 c 2.92578,-2.92578 2.92578,-7.67187 0,-10.59375 l -23.49609,-23.49609 c -2.92578,-2.92578 -7.66797,-2.92578 -10.59375,0 -2.92969,2.92968 -2.92969,7.67187 0,10.59765 z m 0,0"
     id="path56"
     inkscape:connector-curvature="0" />
  <path
     d="m 81.171875,188.72266 c 0.898437,0.35156 1.828125,0.51953 2.738281,0.51953 2.992188,0 5.816406,-1.80469 6.976563,-4.75391 L 109.34375,137.5 c 1.51563,-3.85156 -0.38281,-8.19922 -4.23437,-9.71484 -3.84766,-1.51172 -8.199224,0.38281 -9.710942,4.23437 L 76.9375,179.00781 c -1.511719,3.85156 0.382812,8.20313 4.234375,9.71485 z m 0,0"
     id="path58"
     inkscape:connector-curvature="0" />
  <path
     d="m 45.007812,233.20312 h 50.480469 c 4.136719,0 7.492189,-3.35546 7.492189,-7.49609 0,-4.13672 -3.35547,-7.49219 -7.492189,-7.49219 H 45.007812 c -4.140624,0 -7.492187,3.35547 -7.492187,7.49219 0,4.14063 3.351563,7.49609 7.492187,7.49609 z m 0,0"
     id="path60"
     inkscape:connector-curvature="0" />
  <path
     d="m 211.75391,218.21484 h -88.75 c -4.13672,0 -7.49219,3.35547 -7.49219,7.49219 0,4.14063 3.35547,7.49609 7.49219,7.49609 h 88.75 c 4.14062,0 7.49609,-3.35546 7.49609,-7.49609 0,-4.13672 -3.35547,-7.49219 -7.49609,-7.49219 z m 0,0"
     id="path62"
     inkscape:connector-curvature="0" />
  <path
     d="m 45.007812,264.80859 h 21.503907 c 4.136719,0 7.492187,-3.35547 7.492187,-7.49609 0,-4.13672 -3.355468,-7.49219 -7.492187,-7.49219 H 45.007812 c -4.140624,0 -7.492187,3.35547 -7.492187,7.49219 0,4.14062 3.351563,7.49609 7.492187,7.49609 z m 0,0"
     id="path64"
     inkscape:connector-curvature="0" />
  <path
     d="m 184.33984,249.82031 c -4.14062,0 -7.49218,3.35547 -7.49218,7.49219 0,4.14062 3.35156,7.49609 7.49218,7.49609 h 13.09375 c 4.14063,0 7.4961,-3.35547 7.4961,-7.49609 0,-4.13672 -3.35547,-7.49219 -7.4961,-7.49219 z m 0,0"
     id="path66"
     inkscape:connector-curvature="0" />
  <path
     d="m 164.61719,257.3125 c 0,-4.13672 -3.35547,-7.49219 -7.49219,-7.49219 H 92.804688 c -4.140626,0 -7.492188,3.35547 -7.492188,7.49219 0,4.14062 3.351562,7.49609 7.492188,7.49609 H 157.125 c 4.13672,0 7.49219,-3.35547 7.49219,-7.49609 z m 0,0"
     id="path68"
     inkscape:connector-curvature="0" />
  <path
     d="m 213.70312,257.3125 c 0,4.14062 3.35547,7.49609 7.49219,7.49609 h 24.52735 c 4.14062,0 7.49609,-3.35547 7.49609,-7.49609 0,-4.13672 -3.35547,-7.49219 -7.49609,-7.49219 h -24.52735 c -4.13672,0 -7.49219,3.35547 -7.49219,7.49219 z m 0,0"
     id="path70"
     inkscape:connector-curvature="0" />
  <path
     d="m 172.89453,164.26562 h 25.87109 c 4.14063,0 7.4961,-3.35546 7.4961,-7.49609 0,-4.13672 -3.35547,-7.49219 -7.4961,-7.49219 h -25.87109 c -4.14062,0 -7.49609,3.35547 -7.49609,7.49219 0,4.14063 3.35547,7.49609 7.49609,7.49609 z m 0,0"
     id="path72"
     inkscape:connector-curvature="0" />
  <path
     d="m 227.74219,164.26562 h 157.85547 c 4.14062,0 7.49218,-3.35546 7.49218,-7.49609 0,-4.13672 -3.35156,-7.49219 -7.49218,-7.49219 H 227.74219 c -4.14063,0 -7.4961,3.35547 -7.4961,7.49219 0,4.14063 3.35547,7.49609 7.4961,7.49609 z m 0,0"
     id="path74"
     inkscape:connector-curvature="0" />
  <path
     d="m 361.62109,182.24609 h -63.94531 c -4.13672,0 -7.49219,3.35547 -7.49219,7.4961 0,4.13672 3.35547,7.49218 7.49219,7.49218 h 63.94531 c 4.13672,0 7.49219,-3.35546 7.49219,-7.49218 0,-4.14063 -3.35547,-7.4961 -7.49219,-7.4961 z m 0,0"
     id="path76"
     inkscape:connector-curvature="0" />
  <path
     d="m 273.69922,182.24609 h -21.98047 c -4.14062,0 -7.49219,3.35547 -7.49219,7.4961 0,4.13672 3.35157,7.49218 7.49219,7.49218 h 21.98047 c 4.14062,0 7.49219,-3.35546 7.49219,-7.49218 0,-4.14063 -3.35157,-7.4961 -7.49219,-7.4961 z m 0,0"
     id="path78"
     inkscape:connector-curvature="0" />
  <path
     d="m 172.89453,197.23437 h 53.84766 c 4.13672,0 7.49218,-3.35546 7.49218,-7.49218 0,-4.14063 -3.35546,-7.4961 -7.49218,-7.4961 h -53.84766 c -4.14062,0 -7.49609,3.35547 -7.49609,7.4961 0,4.13672 3.35547,7.49218 7.49609,7.49218 z m 0,0"
     id="path80"
     inkscape:connector-curvature="0" />
  <path
     d="m 157.21875,281.16016 h -50.47656 c -4.14063,0 -7.496096,3.35546 -7.496096,7.49218 0,4.13672 3.355466,7.49219 7.496096,7.49219 h 50.47656 c 4.13672,0 7.49219,-3.35547 7.49219,-7.49219 0,-4.13672 -3.35547,-7.49218 -7.49219,-7.49218 z m 0,0"
     id="path82"
     inkscape:connector-curvature="0" />
  <path
     d="m 83.789062,281.16016 h -38.78125 c -4.140624,0 -7.492187,3.35546 -7.492187,7.49218 0,4.13672 3.351563,7.49219 7.492187,7.49219 h 38.78125 c 4.140626,0 7.492188,-3.35547 7.492188,-7.49219 0,-4.13672 -3.351562,-7.49218 -7.492188,-7.49218 z m 0,0"
     id="path84"
     inkscape:connector-curvature="0" />
  <path
     d="m 248.72266,281.16016 h -65.94141 c -4.14063,0 -7.49219,3.35546 -7.49219,7.49218 0,4.13672 3.35156,7.49219 7.49219,7.49219 h 65.94141 c 4.13671,0 7.49218,-3.35547 7.49218,-7.49219 0,-4.13672 -3.35546,-7.49218 -7.49218,-7.49218 z m 0,0"
     id="path86"
     inkscape:connector-curvature="0" />
  <path
     d="m 337.89844,242.66797 h -36.0586 c -4.13672,0 -7.49218,3.35547 -7.49218,7.49219 0,4.14062 3.35546,7.49609 7.49218,7.49609 h 36.0586 c 4.14062,0 7.49218,-3.35547 7.49218,-7.49609 0,-4.13672 -3.35156,-7.49219 -7.49218,-7.49219 z m 0,0"
     id="path88"
     inkscape:connector-curvature="0" />
  <path
     d="m 400.46875,257.65625 h 50.90234 c 4.14063,0 7.4961,-3.35547 7.4961,-7.49609 0,-4.13672 -3.35547,-7.49219 -7.4961,-7.49219 h -50.90234 c -4.14063,0 -7.49219,3.35547 -7.49219,7.49219 0,4.14062 3.35547,7.49609 7.49219,7.49609 z m 0,0"
     id="path90"
     inkscape:connector-curvature="0" />
  <path
     d="m 375.01562,242.66797 h -11.66406 c -4.14062,0 -7.49609,3.35547 -7.49609,7.49219 0,4.14062 3.35547,7.49609 7.49609,7.49609 h 11.66406 c 4.14063,0 7.49219,-3.35547 7.49219,-7.49609 0,-4.13672 -3.35156,-7.49219 -7.49219,-7.49219 z m 0,0"
     id="path92"
     inkscape:connector-curvature="0" />
  <path
     d="m 301.83984,339.3125 h 36.0586 c 4.14062,0 7.49219,-3.35156 7.49219,-7.49219 0,-4.13672 -3.35157,-7.49219 -7.49219,-7.49219 h -36.0586 c -4.13671,0 -7.49218,3.35547 -7.49218,7.49219 0,4.14063 3.35547,7.49219 7.49218,7.49219 z m 0,0"
     id="path94"
     inkscape:connector-curvature="0" />
  <path
     d="m 400.46875,339.3125 h 50.90234 c 4.14063,0 7.4961,-3.35156 7.4961,-7.49219 0,-4.13672 -3.35547,-7.49219 -7.4961,-7.49219 h -50.90234 c -4.14063,0 -7.49219,3.35547 -7.49219,7.49219 0,4.14063 3.35547,7.49219 7.49219,7.49219 z m 0,0"
     id="path96"
     inkscape:connector-curvature="0" />
  <path
     d="m 363.35156,339.3125 h 11.66406 c 4.14063,0 7.4961,-3.35156 7.4961,-7.49219 0,-4.13672 -3.35547,-7.49219 -7.4961,-7.49219 h -11.66406 c -4.14062,0 -7.49219,3.35547 -7.49219,7.49219 0,4.14063 3.35157,7.49219 7.49219,7.49219 z m 0,0"
     id="path98"
     inkscape:connector-curvature="0" />
  <path
     d="m 337.89844,405.98828 h -36.0586 c -4.13672,0 -7.49218,3.35547 -7.49218,7.49219 0,4.13672 3.35546,7.49219 7.49218,7.49219 h 36.0586 c 4.14062,0 7.49218,-3.35547 7.49218,-7.49219 0,-4.13672 -3.35156,-7.49219 -7.49218,-7.49219 z m 0,0"
     id="path100"
     inkscape:connector-curvature="0" />
  <path
     d="m 451.37109,405.98828 h -50.90234 c -4.14063,0 -7.49219,3.35547 -7.49219,7.49219 0,4.13672 3.35156,7.49219 7.49219,7.49219 h 50.90234 c 4.14063,0 7.4961,-3.35547 7.4961,-7.49219 0,-4.13672 -3.35547,-7.49219 -7.4961,-7.49219 z m 0,0"
     id="path102"
     inkscape:connector-curvature="0" />
  <path
     d="m 375.01562,405.98828 h -11.66406 c -4.14062,0 -7.49609,3.35547 -7.49609,7.49219 0,4.13672 3.35547,7.49219 7.49609,7.49219 h 11.66406 c 4.14063,0 7.49219,-3.35547 7.49219,-7.49219 0,-4.13672 -3.35156,-7.49219 -7.49219,-7.49219 z m 0,0"
     id="path104"
     inkscape:connector-curvature="0" />
  <path
     d="M 479.02344,0.5 H 32.980469 C 14.796875,0.5 0,15.292969 0,33.480469 V 396.04687 c 0,18.1836 14.796875,32.97657 32.980469,32.97657 h 28.199219 c 4.136718,0 7.492187,-3.35157 7.492187,-7.49219 0,-4.13672 -3.355469,-7.49219 -7.492187,-7.49219 H 32.980469 c -9.921875,0 -17.992188,-8.07031 -17.992188,-17.99219 V 367.62109 H 287.98437 v 12.91407 h -5.9414 c -8.12891,0 -14.73828,6.60937 -14.73828,14.73828 v 18.76562 H 106.73828 c -4.13672,0 -7.492186,3.35547 -7.492186,7.49219 0,4.14062 3.355466,7.49219 7.492186,7.49219 h 72.04688 v 26.875 h -22.625 c -15.09375,0 -27.3711,12.28125 -27.3711,27.37109 v 16.1875 c 0,6.88672 5.60157,12.48828 12.48828,12.48828 h 228.875 c 6.88672,0 12.48829,-5.60156 12.48829,-12.48828 v -16.1875 c 0,-15.08984 -12.27735,-27.37109 -27.3711,-27.37109 h -22.625 v -9.47266 h 138.52735 c 8.125,0 14.73437,-6.60937 14.73437,-14.73828 v -3.52734 c 14.60547,-3.39063 25.52344,-16.4961 25.52344,-32.11329 l 0.5664,-362.570308 C 512,15.292969 497.20703,0.5 479.02344,0.5 Z M 282.29297,349.78125 v -35.91797 h 188.6289 v 35.91797 z M 302.96875,298.875 V 283.10937 H 450.24219 V 298.875 Z m 147.27344,65.89062 v 15.76954 H 302.96875 v -15.76954 z m -256.47266,64.25782 h 73.53516 v 2.66797 c 0,8.125 6.60937,14.73437 14.73828,14.73437 h 35.61719 v 9.47266 H 193.76953 Z m 161.50391,41.86328 c 6.82812,0 12.38281,5.55469 12.38281,12.38281 v 13.69141 H 143.77344 v -13.69141 c 0,-6.82812 5.55859,-12.38281 12.38672,-12.38281 z M 470.92187,431.4375 h -188.6289 v -35.91406 h 188.6289 z m 25.52344,-35.39063 c 0,7.25782 -4.32812,13.51172 -10.53515,16.35157 v -17.12891 c 0,-8.125 -6.61329,-14.73437 -14.73829,-14.73437 h -5.9414 v -12.91407 h 31.21484 z m 0,-43.41015 h -10.78125 c 0.15235,-0.84766 0.2461,-39.02344 0.2461,-39.02344 0,-8.12891 -6.61329,-14.73828 -14.73829,-14.73828 h -5.9414 v -15.76563 h 5.9414 c 8.125,0 14.73829,-6.61328 14.73829,-14.73828 v -36.41797 c 0,-8.125 -6.61328,-14.73828 -14.73829,-14.73828 h -42.32421 c -4.14063,0 -7.49219,3.35547 -7.49219,7.4961 0,4.13672 3.35156,7.49218 7.49219,7.49218 h 42.07421 v 35.91797 h -188.6289 v -35.91797 h 99.92969 c 4.14062,0 7.49218,-3.35546 7.49218,-7.49218 0,-4.14063 -3.35156,-7.4961 -7.49218,-7.4961 H 282.04297 c -8.12891,0 -14.73828,6.61328 -14.73828,14.73828 v 36.41797 c 0,8.125 6.60937,14.73828 14.73828,14.73828 h 5.9414 V 298.875 h -5.9414 c -8.12891,0 -14.73828,6.61328 -14.73828,14.73828 0,0 0.0937,38.17578 0.24609,39.02344 H 14.988281 V 102.42969 H 496.44531 Z m 0,-265.195314 H 15.539062 V 33.476562 c 0,-9.917968 8.070313,-17.988281 17.992188,-17.988281 h 444.92187 c 9.92188,0 17.99219,8.070313 17.99219,17.992188 z m 0,0"
     id="path106"
     inkscape:connector-curvature="0" />
  <path
     d="m 55.261719,29.261719 c -12.125,0 -21.988281,9.863281 -21.988281,21.988281 0,12.125 9.863281,21.992188 21.988281,21.992188 12.125,0 21.992187,-9.867188 21.992187,-21.992188 0,-12.125 -9.867187,-21.988281 -21.992187,-21.988281 z m 0,28.992187 c -3.859375,0 -7.003907,-3.140625 -7.003907,-7.003906 0,-3.859375 3.144532,-7.003906 7.003907,-7.003906 3.863281,0 7.003906,3.144531 7.003906,7.003906 0,3.863281 -3.140625,7.003906 -7.003906,7.003906 z m 0,0"
     id="path108"
     inkscape:connector-curvature="0" />
  <path
     d="m 111.25,29.261719 c -12.125,0 -21.992188,9.863281 -21.992188,21.988281 0,12.125 9.867188,21.992188 21.992188,21.992188 12.125,0 21.98828,-9.867188 21.98828,-21.992188 0,-12.125 -9.86719,-21.988281 -21.98828,-21.988281 z m 0,28.992187 c -3.86328,0 -7.00391,-3.140625 -7.00391,-7.003906 0,-3.859375 3.14063,-7.003906 7.00391,-7.003906 3.85938,0 7.00391,3.144531 7.00391,7.003906 0,3.863281 -3.14453,7.003906 -7.00391,7.003906 z m 0,0"
     id="path110"
     inkscape:connector-curvature="0" />
  <path
     d="m 167.23437,29.261719 c -12.125,0 -21.98828,9.863281 -21.98828,21.988281 0,12.125 9.86328,21.992188 21.98828,21.992188 12.125,0 21.99219,-9.867188 21.99219,-21.992188 0,-12.125 -9.86719,-21.988281 -21.99219,-21.988281 z m 0,28.992187 c -3.85937,0 -7.0039,-3.140625 -7.0039,-7.003906 0,-3.859375 3.14453,-7.003906 7.0039,-7.003906 3.86329,0 7.00391,3.144531 7.00391,7.003906 0,3.863281 -3.14062,7.003906 -7.00391,7.003906 z m 0,0"
     id="path112"
     inkscape:connector-curvature="0" />
  <path
     style="fill:#ffff00;stroke-width:1.44350278"
     d="M 21.066496,303.29451 V 138.01343 H 324.92384 628.78119 v 75.7839 75.7839 h -31.53334 c -33.72162,0 -34.10907,0.0798 -36.76834,7.57839 -0.79553,2.24325 -3.16396,2.52613 -21.1502,2.52613 -17.04152,0 -20.25434,-0.34347 -20.25434,-2.16525 0,-1.19089 -1.29915,-3.46441 -2.887,-5.05226 -2.80978,-2.80978 -4.80794,-2.88687 -74.70128,-2.88161 -93.50366,0.007 -86.24929,-3.69587 -86.24929,44.02478 0,26.90915 0.30211,30.90091 2.60456,34.41366 3.80872,5.81078 10.89322,9.59821 17.96536,9.60443 l 6.13488,0.005 v 10.10452 10.10452 h -5.09862 c -7.4049,0 -14.18747,3.31156 -18.14371,8.85858 -3.38224,4.74222 -3.46033,5.51525 -3.37033,33.36388 l 0.0921,28.50918 H 188.24409 21.066496 Z m 97.704284,88.5238 c 4.14328,-3.89242 4.348,-10.28931 0.45391,-14.18341 -2.70519,-2.70518 -4.81168,-2.887 -33.44778,-2.887 -34.663548,0 -35.840357,0.33643 -35.840357,10.24638 0,9.4162 1.972133,9.96266 35.954847,9.96266 28.34113,0 29.67388,-0.12718 32.87938,-3.13863 z m 98.50733,-0.6648 c 1.64548,-2.09188 2.99178,-4.92737 2.99178,-6.30109 0,-1.37373 -1.3463,-4.20921 -2.99178,-6.3011 l -2.99177,-3.80342 h -38.64608 c -36.79345,0 -38.77115,0.13814 -41.25486,2.88266 -3.2372,3.57707 -3.17292,10.93768 0.12737,14.58446 2.31992,2.56348 4.9963,2.74192 41.12749,2.74192 h 38.64608 z m 121.30277,0.64423 c 3.74691,-4.02183 3.77242,-10.44666 0.0563,-14.16284 -2.77268,-2.77268 -4.81168,-2.887 -51.49157,-2.887 -54.70375,0 -53.8842,-0.15584 -53.8842,10.24638 0,9.95323 0.0514,9.96266 54.39631,9.96266 47.49898,0 48.00943,-0.0316 50.92316,-3.1592 z M 96.128643,350.20835 c 3.711718,-3.71172 3.711718,-10.72331 0,-14.43503 -2.585747,-2.58575 -4.811676,-2.88701 -21.331354,-2.88701 -21.661633,0 -24.860736,1.24973 -24.860736,9.71183 0,9.53329 2.207647,10.49721 24.041522,10.49721 17.338892,0 19.55201,-0.28844 22.150568,-2.887 z m 120.549347,-0.0186 c 3.37139,-3.72534 3.37139,-10.67243 0,-14.39776 -2.53351,-2.79951 -4.36147,-2.90566 -50.04144,-2.90566 -45.48719,0 -47.52906,0.1172 -50.29887,2.88701 -3.52985,3.52986 -3.78494,11.05023 -0.49802,14.68224 2.22299,2.45638 5.71778,2.63979 50.29887,2.63979 46.17904,0 48.0049,-0.10494 50.53946,-2.90564 z m 54.00973,-0.89779 c 1.64547,-2.09189 2.99177,-4.92738 2.99177,-6.30111 0,-1.37372 -1.3463,-4.20921 -2.99177,-6.30109 -2.84103,-3.61179 -3.65458,-3.80343 -16.14638,-3.80343 -11.51942,0 -13.56988,0.39014 -16.49551,3.13863 -4.14329,3.89242 -4.348,10.28931 -0.45391,14.18341 2.4787,2.47869 4.81167,2.887 16.49551,2.887 12.98217,0 13.74621,-0.17505 16.60029,-3.80342 z m 63.61889,0.91641 c 1.60389,-1.60389 2.887,-4.81167 2.887,-7.21752 0,-2.40584 -1.28311,-5.61362 -2.887,-7.21751 -2.62082,-2.62082 -4.81167,-2.88701 -23.76156,-2.88701 -19.61518,0 -21.05213,0.1906 -23.8178,3.1592 -3.74691,4.02183 -3.77242,10.44666 -0.0563,14.16284 2.62153,2.62153 4.81167,2.887 23.81779,2.887 19.00613,0 21.19627,-0.26547 23.8178,-2.887 z M 134.99845,307.43034 c 1.64548,-2.09188 2.99177,-4.92736 2.99177,-6.30109 0,-1.37372 -1.34629,-4.20921 -2.99177,-6.30109 l -2.99178,-3.80343 H 93.611406 c -43.353069,0 -43.674853,0.0755 -43.674853,10.24639 0,9.70968 1.123445,9.96265 44.243254,9.96265 h 37.826863 z m 154.4548,0 c 3.77667,-4.80124 3.81547,-9.8079 0.1048,-13.5186 -2.80021,-2.80021 -4.81167,-2.88701 -66.89915,-2.88701 -62.14678,0 -64.08818,0.084 -66.62093,2.88266 -3.57606,3.95151 -3.1678,11.58326 0.79113,14.78901 2.88302,2.33455 8.18934,2.53737 66.38293,2.53737 h 63.24945 z m 19.65767,-47.3753 c 3.95978,-3.95979 4.31619,-6.1724 1.86188,-11.55901 -2.73965,-6.01289 -8.67929,-6.78351 -48.44294,-6.28506 -35.19211,0.44114 -36.51628,0.56185 -39.55792,3.60599 -4.14501,4.1484 -4.01566,11.78303 0.25827,15.24384 2.81942,2.28303 7.10323,2.53738 42.73555,2.53738 h 39.60202 z m 62.27285,0.40451 c 4.07719,-3.83033 4.31813,-9.76884 0.58358,-14.38436 -2.51224,-3.10487 -4.06235,-3.45223 -17.43802,-3.90757 -8.07437,-0.27487 -16.93823,-0.0762 -19.69746,0.44139 -9.93264,1.86338 -13.45552,9.78997 -7.63801,17.18574 2.96033,3.76343 3.19082,3.80343 21.92039,3.80343 17.44775,0 19.18998,-0.24555 22.26952,-3.13863 z m 116.92373,0 c 4.07797,-3.83106 4.31804,-9.76987 0.58144,-14.38436 l -2.75945,-3.4078 h -46.88984 c -44.08458,0 -47.07162,0.16451 -49.92838,2.74985 -2.07043,1.87371 -3.03856,4.49218 -3.03856,8.21829 0,9.91568 0.24775,9.96265 52.55514,9.96265 45.38501,0 46.19332,-0.0513 49.47965,-3.13863 z M 93.602513,248.94168 c 4.959961,-5.86166 3.349199,-9.43264 -10.731318,-23.79077 L 69.613748,211.63208 82.871195,198.11324 c 10.384733,-10.58948 13.257448,-14.40097 13.257448,-17.58987 0,-5.55842 -5.167434,-10.75287 -10.696948,-10.75287 -3.734752,0 -7.275048,2.84902 -22.844422,18.38383 -24.272155,24.21828 -24.213014,22.37965 -1.463574,45.50064 9.328637,9.48099 18.260311,17.7961 19.848164,18.47802 4.054896,1.7414 9.653756,0.32677 12.63065,-3.19131 z m 23.759927,2.3732 c 3.47319,-2.43271 29.2888,-66.08396 29.2888,-72.21477 0,-7.93094 -12.43109,-12.7179 -17.66771,-6.80348 -1.23015,1.38937 -8.12935,17.59503 -15.33156,36.01258 -11.51094,29.43588 -12.91702,33.99677 -11.62421,37.70534 2.33806,6.70696 9.69566,9.25006 15.33468,5.30033 z m 66.459,-17.12335 c 23.57161,-23.63806 23.60206,-21.63924 -0.70092,-45.9963 -15.88061,-15.91594 -19.01121,-18.42473 -22.99128,-18.42473 -3.25818,0 -5.48356,1.1138 -7.59922,3.80342 -5.28928,6.72423 -4.06095,9.65597 10.23861,24.43727 l 13.23037,13.6761 -13.23037,13.49123 c -8.58235,8.75155 -13.23038,14.60713 -13.23038,16.66757 0,7.29698 5.92218,12.22128 12.99152,10.80247 2.11484,-0.42445 10.92901,-8.06516 21.29167,-18.45703 z m 88.5454,-18.02799 c 3.74888,-4.63523 3.46203,-9.73083 -0.787,-13.97985 -3.42352,-3.42353 -4.22357,-3.54314 -23.69973,-3.54314 -11.08612,0 -21.25631,0.42201 -22.60042,0.93779 -3.743,1.43632 -6.38084,8.94381 -4.76806,13.57022 2.16533,6.21147 5.85425,7.0871 28.39829,6.74078 19.82826,-0.30459 20.81693,-0.46163 23.45692,-3.7258 z m 247.23521,1.13778 c 2.75858,-2.16989 3.80343,-4.32214 3.80343,-7.8345 0,-3.51235 -1.04485,-5.6646 -3.80343,-7.83449 -3.77093,-2.96623 -4.72692,-2.99178 -111.93707,-2.99178 H 299.53131 l -3.54313,3.54314 c -5.45071,5.45071 -4.08351,13.92829 2.6861,16.65583 1.73444,0.69882 51.29695,1.31175 110.13893,1.36208 106.11767,0.0907 107.01626,0.0672 110.78884,-2.90028 z"
     id="path130"
     inkscape:connector-curvature="0"
     transform="matrix(0.7514648,0,0,0.7514648,0,-0.499)" />
  <text
     xml:space="preserve"
     style="font-style:normal;font-weight:normal;font-size:54.60375977px;line-height:1.25;font-family:sans-serif;letter-spacing:0px;word-spacing:0px;display:inline;fill:#000000;fill-opacity:1;stroke:none;stroke-width:1.13757825"
     x="214.05167"
     y="65.540672"
     id="text64"
     transform="scale(0.91347469,1.0947211)"
     sodipodi:insensitive="true"><tspan
       sodipodi:role="line"
       id="tspan62"
       x="214.05167"
       y="65.540672"
       style="font-weight:bold;fill:#ff0000;stroke-width:1.13757825">CandyCBT</tspan></text>
</svg>
