<?xml version="1.0" encoding="UTF-8" standalone="no"?>
<!-- Generator: Adobe Illustrator 19.0.0, SVG Export Plug-In . SVG Version: 6.00 Build 0)  -->

<svg
   xmlns:dc="http://purl.org/dc/elements/1.1/"
   xmlns:cc="http://creativecommons.org/ns#"
   xmlns:rdf="http://www.w3.org/1999/02/22-rdf-syntax-ns#"
   xmlns:svg="http://www.w3.org/2000/svg"
   xmlns="http://www.w3.org/2000/svg"
   xmlns:sodipodi="http://sodipodi.sourceforge.net/DTD/sodipodi-0.dtd"
   xmlns:inkscape="http://www.inkscape.org/namespaces/inkscape"
   version="1.1"
   id="Capa_1"
   x="0px"
   y="0px"
   viewBox="0 0 498.752 498.752"
   xml:space="preserve"
   sodipodi:docname="siswa_ujian.svg"
   inkscape:version="0.92.4 (5da689c313, 2019-01-14)"
   width="131.96147mm"
   height="131.96147mm"><metadata
   id="metadata61"><rdf:RDF><cc:Work
       rdf:about=""><dc:format>image/svg+xml</dc:format><dc:type
         rdf:resource="http://purl.org/dc/dcmitype/StillImage" /><dc:title></dc:title></cc:Work></rdf:RDF></metadata><defs
   id="defs59" /><sodipodi:namedview
   pagecolor="#ffffff"
   bordercolor="#666666"
   borderopacity="1"
   objecttolerance="10"
   gridtolerance="10"
   guidetolerance="10"
   inkscape:pageopacity="0"
   inkscape:pageshadow="2"
   inkscape:window-width="1920"
   inkscape:window-height="986"
   id="namedview57"
   showgrid="false"
   inkscape:zoom="0.94636209"
   inkscape:cx="78.452775"
   inkscape:cy="234.37987"
   inkscape:window-x="-11"
   inkscape:window-y="-11"
   inkscape:window-maximized="1"
   inkscape:current-layer="Capa_1"
   units="mm" />
<rect
   x="224"
   y="257.37601"
   width="24"
   height="16"
   id="rect2" />
<g
   id="g10">
	<path
   style="fill:#f0bc5e"
   d="m 412.168,170.224 -4,-4 c -18.608,-18.6 -43.344,-28.848 -69.664,-28.848 -54.32,0 -98.504,44.184 -98.504,98.504 v 61.496 h 8 c 0,-13.256 10.744,-24 24,-24 v -8 c 20.488,0 40.136,-8.136 54.624,-22.624 l 9.376,-9.376 0.824,1.096 c 14.592,19.456 37.488,30.904 61.8,30.904 H 416 v 8 c 13.256,0 24,10.744 24,24 h 8 V 218.36 c 0,-22.328 -14.624,-41.8 -35.832,-48.136 z"
   id="path4"
   inkscape:connector-curvature="0" />
	<rect
   x="256"
   y="65.375999"
   style="fill:#f0bc5e"
   width="80"
   height="32"
   id="rect6" />
	<rect
   x="32"
   y="209.37601"
   style="fill:#f0bc5e"
   width="80"
   height="32"
   id="rect8" />
</g>
<path
   d="m 251.504,396.24 c -20.832,3.792 -37.536,18.736 -43.624,39.008 l -18.632,62.128 H 498.752 L 480.12,435.248 c -6.088,-20.272 -22.8,-35.216 -43.624,-39 L 384,386.696 v -4.144 c 19.632,-11.4 34,-30.848 38.488,-53.84 C 437.032,325.704 448,312.8 448,297.376 c 0,-14.872 -10.232,-27.288 -24,-30.864 v -9.136 h -25.376 c -21.68,0 -42.392,-10.352 -55.4,-27.688 l -6.352,-8.496 -15.904,15.904 c -13.08,13.08 -30.472,20.28 -48.968,20.28 h -8 v 9.136 c -13.768,3.576 -24,15.992 -24,30.864 0,2.776 0.464,5.424 1.136,8 H 24 c -4.416,0 -8,-3.584 -8,-8 v -24 h 192 v -16 H 16 v -200 c 0,-4.408 3.584,-8 8,-8 h 112 v 24 c 0,13.704 5.784,26.464 16,35.592 v 5.632 l -21.36,3.56 c -15.16,2.52 -27.672,13.696 -31.888,28.464 l -13.36,46.752 h 164.392 c 2.72,-5.656 5.952,-11 9.664,-16 h -152.84 l 7.528,-26.352 c 2.52,-8.856 10.04,-15.56 19.128,-17.08 L 168,128.152 v -26.936 l -3.176,-2.4 C 156.672,92.656 152,83.384 152,73.376 v -24 c 0,-17.648 14.352,-32 32,-32 17.648,0 32,14.352 32,32 v 24 c 0,10.008 -4.672,19.28 -12.824,25.44 l -3.176,2.4 v 26.936 l 34.736,5.792 c 9.088,1.512 16.6,8.216 19.128,17.08 l 7,24.456 c 3.824,-4.912 8.104,-9.432 12.768,-13.536 l -4.376,-15.32 C 265.04,131.856 252.52,120.68 237.368,118.152 L 216,114.6 v -5.632 C 226.216,99.84 232,87.08 232,73.376 v -24 h 112 c 4.416,0 8,3.592 8,8 V 138.4 c 5.448,0.744 10.808,1.864 16,3.48 V 57.376 c 0,-13.232 -10.768,-24 -24,-24 H 229.2 c -6.608,-18.616 -24.344,-32 -45.2,-32 -20.856,0 -38.592,13.384 -45.2,32 H 24 c -13.232,0 -24,10.768 -24,24 v 240 c 0,13.232 10.768,24 24,24 h 96 v 32 h -16 v 16 h 160 v -16 h -16 v -32 h 3.056 c 4.072,3.56 8.968,6.2 14.456,7.336 4.488,22.992 18.864,42.44 38.488,53.84 v 4.144 z M 232,353.376 h -96 v -32 h 96 z m 24,-56 c 0,-5.896 3.24,-11 8,-13.776 v 27.544 c -4.76,-2.768 -8,-7.872 -8,-13.768 z m 54,104.496 21.824,16.368 -16.32,16.32 -10.592,-31.768 z m 73.096,0.928 -10.592,31.768 -16.32,-16.32 21.824,-16.368 z M 344,407.376 320.672,389.888 c 7.392,2.256 15.216,3.488 23.328,3.488 8.112,0 15.936,-1.232 23.328,-3.488 z m 120.792,32.472 12.456,41.528 H 210.752 l 12.464,-41.528 c 4.344,-14.48 16.28,-25.16 31.16,-27.856 l 34.64,-6.296 19.496,58.496 35.488,-35.504 35.504,35.504 19.496,-58.496 34.64,6.296 c 14.864,2.696 26.808,13.376 31.152,27.856 z M 432,297.376 c 0,5.896 -3.24,11 -8,13.776 v -27.544 c 4.76,2.768 8,7.872 8,13.768 z m -152,16 v -40.368 c 19.752,-1.832 38.088,-10.408 52.28,-24.608 l 3.112,-3.112 c 16.056,17.704 39.16,28.08 63.232,28.08 H 408 v 40 c 0,35.288 -28.712,64 -64,64 -35.288,0 -64,-28.704 -64,-63.992 z"
   id="path12"
   inkscape:connector-curvature="0" />
<rect
   x="256"
   y="65.375999"
   width="16"
   height="16"
   id="rect14" />
<rect
   x="288"
   y="65.375999"
   width="16"
   height="16"
   id="rect16" />
<rect
   x="320"
   y="65.375999"
   width="16"
   height="16"
   id="rect18" />
<rect
   x="32"
   y="225.37601"
   width="16"
   height="16"
   id="rect20" />
<rect
   x="64"
   y="225.37601"
   width="16"
   height="16"
   id="rect22" />
<rect
   x="96"
   y="225.37601"
   width="16"
   height="16"
   id="rect24" />
<g
   id="g26">
</g>
<g
   id="g28">
</g>
<g
   id="g30">
</g>
<g
   id="g32">
</g>
<g
   id="g34">
</g>
<g
   id="g36">
</g>
<g
   id="g38">
</g>
<g
   id="g40">
</g>
<g
   id="g42">
</g>
<g
   id="g44">
</g>
<g
   id="g46">
</g>
<g
   id="g48">
</g>
<g
   id="g50">
</g>
<g
   id="g52">
</g>
<g
   id="g54">
</g>
<path
   style="fill:#ffffff;stroke-width:1.05667794"
   d="m 212.03191,478.71928 c 0.31907,-1.01706 3.15734,-10.40828 6.30725,-20.86939 7.06713,-23.47045 7.29229,-24.04692 11.78032,-30.16084 4.5813,-6.24098 13.02572,-12.03027 20.57181,-14.10351 10.13298,-2.78399 37.1256,-7.26862 38.00268,-6.31389 0.462,0.50291 5.05159,13.63535 10.19909,29.18321 l 9.3591,28.26885 17.71339,-17.69041 17.7134,-17.69041 17.82846,17.80533 c 9.80567,9.79293 18.06287,17.39577 18.34935,16.89519 0.28648,-0.50057 4.69187,-13.51102 9.78975,-28.9121 5.09786,-15.40108 9.42413,-28.18267 9.61388,-28.40352 0.94895,-1.10441 38.56724,6.64609 43.98127,9.06145 6.31633,2.81791 15.00058,10.9317 18.0857,16.89765 0.92285,1.7846 4.73102,13.28801 8.46261,25.56315 l 6.78472,22.31842 H 344.01324 c -125.76555,0 -132.53171,-0.0948 -131.98133,-1.84918 z"
   id="path65"
   inkscape:connector-curvature="0" /><path
   style="fill:#ffffff;stroke-width:1.05667794"
   d="m 311.03147,419.01697 c -5.46469,-16.68832 -5.31576,-15.88989 -3.05632,-16.38535 1.04843,-0.22991 6.31307,3.01499 12.52874,7.72217 l 10.72046,8.11869 -7.217,7.27274 c -3.96935,4 -7.48119,7.27273 -7.80409,7.27273 -0.32289,0 -2.6502,-6.30044 -5.17179,-14.00098 z"
   id="path69"
   inkscape:connector-curvature="0" /><path
   style="fill:#ffffff;stroke-width:1.05667794"
   d="m 334.43232,399.46791 c -5.31504,-3.8862 -9.54894,-7.18058 -9.40867,-7.32085 0.14028,-0.14028 4.58678,0.29172 9.88112,0.95999 7.11876,0.89855 11.92344,0.9113 18.44606,0.049 4.851,-0.64134 8.95147,-1.03601 9.11217,-0.87705 0.1607,0.15896 -2.45458,2.34358 -5.81173,4.8547 -3.35715,2.51112 -7.55546,5.65341 -9.32958,6.98287 l -3.22567,2.41719 z"
   id="path71"
   inkscape:connector-curvature="0" /><path
   style="fill:#ffffff;stroke-width:1.05667794"
   d="m 330.99882,375.37085 c -18.46901,-3.96667 -35.03379,-16.74049 -43.20559,-33.31769 -6.36315,-12.90821 -7.47503,-19.74185 -7.49661,-46.07443 l -0.0183,-22.38966 5.01922,-0.73162 c 14.43401,-2.10395 30.26958,-9.47664 42.59419,-19.83091 l 7.98797,-6.71094 4.16382,4.15407 c 14.1619,14.12874 36.18164,22.96654 57.26189,22.9825 l 9.77427,0.007 v 24.60993 c 0,27.22466 -0.64104,31.4866 -6.58784,43.79858 -4.97307,10.29602 -17.73087,22.98792 -28.28253,28.1364 -13.55791,6.61534 -27.15263,8.38563 -41.21044,5.36637 z"
   id="path73"
   inkscape:connector-curvature="0" /><path
   style="fill:#ffffff;stroke-width:1.05667794"
   d="m 261.72516,308.57794 c -2.96484,-2.05889 -4.6938,-6.31759 -4.6938,-11.56156 0,-4.68664 0.49305,-6.10197 3.13906,-9.01081 l 3.13906,-3.45088 0.031,12.41597 c 0.017,6.82878 -0.0879,12.40868 -0.23319,12.39979 -0.1453,-0.009 -0.76724,-0.36553 -1.3821,-0.79251 z"
   id="path75"
   inkscape:connector-curvature="0" /><path
   style="fill:#ffffff;stroke-width:1.05667794"
   d="m 423.98648,297.83888 c 0,-13.73342 0.50742,-14.78066 4.54278,-9.37573 4.36531,5.84686 3.29388,15.21562 -2.32124,20.29723 l -2.22154,2.01047 z"
   id="path77"
   inkscape:connector-curvature="0" /><path
   style="fill:#ffffff;stroke-width:1.05667794"
   d="m 107.48442,175.98103 c 0.23925,-0.72647 2.15492,-7.26466 4.25703,-14.52932 6.52585,-22.55261 9.22163,-24.83204 34.33872,-29.03544 9.00818,-1.50754 17.68615,-2.9994 19.28437,-3.31525 l 2.90587,-0.57425 v -13.78381 -13.7838 l -4.80507,-4.229592 c -2.64279,-2.326275 -6.0902,-6.665768 -7.66092,-9.64332 -2.81318,-5.332855 -2.85585,-5.713655 -2.85585,-25.490612 0,-18.313018 0.19952,-20.508487 2.27098,-24.989553 2.90758,-6.289804 9.79369,-13.169297 16.06327,-16.04784 6.20123,-2.84716 18.69258,-2.981803 24.8346,-0.267688 6.05303,2.674798 13.85527,10.519883 16.68397,16.775608 2.32082,5.132489 2.49119,6.810067 2.49119,24.529473 0,18.745736 -0.0432,19.108183 -2.99383,25.117034 -1.77162,3.60785 -4.89912,7.689465 -7.66091,9.998036 l -4.6671,3.901204 v 13.95743 13.95743 l 2.90587,0.59229 c 1.59822,0.32576 10.27619,1.81727 19.28437,3.31445 18.35326,3.05037 23.26792,5.14724 27.67585,11.80808 2.86885,4.33511 10.83542,30.38687 9.80305,32.05728 -0.38185,0.61785 -29.79852,1.00301 -76.60518,1.00301 -60.31579,0 -75.89558,-0.27238 -75.55028,-1.32085 z"
   id="path79"
   inkscape:connector-curvature="0" /><path
   style="fill:#b3b3b3;stroke-width:1.05667794"
   d="m 136.57007,337.38859 v -15.32183 h 47.55051 47.5505 v 15.32183 15.32183 h -47.5505 -47.55051 z"
   id="path81"
   inkscape:connector-curvature="0" /><path
   style="fill:#ffff00;stroke-width:1.05667794"
   d="m 20.720203,303.92403 c -3.661593,-1.77297 -4.611429,-5.55515 -4.611429,-18.36238 v -12.10208 h 96.157696 96.1577 v -8.45342 -8.45342 H 112.26647 16.108774 V 156.08704 55.621341 l 3.088751,-3.088751 3.088751,-3.088751 h 56.613556 56.613558 v 14.213143 c 0,21.02217 2.55402,29.89286 11.80724,41.009158 6.85457,8.23468 6.06019,9.21242 -9.69389,11.93144 -15.15132,2.615 -22.12159,5.63278 -29.0783,12.58949 -2.52438,2.52438 -5.63819,6.64483 -6.91957,9.15654 -1.681506,3.29603 -16.836027,53.34294 -16.836027,55.59999 0,0.14583 36.851647,0.26512 81.892547,0.26512 45.0409,0 81.89254,0.15578 81.89254,0.34616 0,0.19039 -1.14566,3.16566 -2.54591,6.61171 -4.33433,10.66684 -5.90751,21.04279 -5.90751,38.96308 v 16.42306 h -8.45343 -8.45342 v 8.45342 8.45342 h 8.47738 8.47737 l -0.20228,15.85017 -0.20229,15.85017 -108.39533,-0.0715 C 59.021042,305.04066 22.226685,304.65349 20.720203,303.92403 Z m 91.546267,-78.5433 V 209.00222 H 72.112707 31.958944 v 16.37851 16.3785 h 40.153763 40.153763 z"
   id="path83"
   inkscape:connector-curvature="0" /><path
   style="fill:#ffff00;stroke-width:1.05667794"
   d="m 273.48755,159.14115 c -0.23964,-0.7633 -1.73886,-5.6117 -3.33158,-10.77423 -6.03352,-19.55656 -16.19395,-27.74413 -39.39505,-31.74566 -15.97425,-2.7551 -16.6058,-3.56476 -9.6472,-12.36805 9.143,-11.566766 11.57537,-20.130489 11.59842,-40.834988 l 0.0156,-14.027585 56.95034,0.290771 c 54.2971,0.277224 57.05393,0.384551 59.17397,2.303729 2.18922,1.981813 2.22355,2.660302 2.21859,43.852137 l -0.005,41.839176 -14.52428,0.12049 c -11.16203,0.0926 -16.4283,0.63507 -22.74924,2.34342 -10.28005,2.77837 -24.85395,9.54703 -31.86859,14.80096 -7.34802,5.50363 -7.93488,5.7958 -8.43596,4.19983 z M 336.28221,81.672518 V 65.294009 h -40.15377 -40.15376 v 16.378509 16.378509 h 40.15376 40.15377 z"
   id="path85"
   inkscape:connector-curvature="0" /><text
   xml:space="preserve"
   style="font-style:normal;font-weight:normal;font-size:10.66666698px;line-height:1.25;font-family:sans-serif;letter-spacing:0px;word-spacing:0px;fill:#000000;fill-opacity:1;stroke:none"
   x="32"
   y="209.37601"
   id="text89"><tspan
     sodipodi:role="line"
     id="tspan87"
     x="32"
     y="219.10753"></tspan></text>
<text
   xml:space="preserve"
   style="font-style:normal;font-weight:normal;font-size:48px;line-height:1.25;font-family:sans-serif;letter-spacing:0px;word-spacing:0px;fill:#000000;fill-opacity:1;stroke:none"
   x="21.13356"
   y="470.22171"
   id="text93"><tspan
     sodipodi:role="line"
     id="tspan91"
     x="21.13356"
     y="470.22171"
     style="font-weight:bold;font-size:53.33333206px;fill:#ff0000">CandyCBT</tspan></text>
</svg>